<svg width="766" height="739" viewBox="0 0 766 739" fill="none" xmlns="http://www.w3.org/2000/svg">
<g filter="url(#filter0_f_9_279)">
<circle cx="288.987" cy="288.987" r="187.988" fill="url(#paint0_radial_9_279)" fill-opacity="0.6"/>
</g>
<g filter="url(#filter1_f_9_279)">
<circle cx="476.987" cy="449.987" r="187.988" fill="url(#paint1_radial_9_279)" fill-opacity="0.6"/>
</g>
<path d="M243.57 209.313C269.757 182.581 302.548 163.25 338.617 153.281C394.992 139.273 440.109 144.687 470.703 164.023C501.297 183.359 510.492 201.578 510.492 201.578L530.687 186.539C530.687 186.539 510.836 139.273 552.773 128.016C594.711 116.758 602.703 151.133 601.07 177.945C599.437 204.758 580.875 210.172 573.656 211.289C565.804 211.195 558.011 209.92 550.539 207.508L527.508 241.883C535.395 258.6 539.726 276.772 540.226 295.25C541.103 311.236 540.787 327.264 539.281 343.203C539.281 343.203 570.133 356.094 571.164 356.094C572.195 356.094 596.258 347.5 604.851 354.633C613.445 361.766 610.953 368.297 610.953 368.297C610.953 368.297 628.141 368.297 624.187 383.336C623.508 387.288 621.835 391.003 619.324 394.13C616.813 397.257 613.548 399.694 609.836 401.211C612.136 402.421 613.873 404.482 614.675 406.954C615.478 409.427 615.283 412.115 614.133 414.445C611.402 419.175 607.057 422.762 601.894 424.546C596.732 426.33 591.1 426.191 586.031 424.156C576.658 417.407 569.651 407.875 566.008 396.914C564.746 392.595 563.911 388.162 563.516 383.68L536.273 375.086C536.273 375.086 514.101 449.164 504.391 479.586C494.68 510.008 489.008 529.773 489.008 529.773C489.008 529.773 522.266 529.773 526.219 546.188C530.172 562.602 529.828 588.469 526.219 590.961C522.609 593.453 483.25 596.719 453.945 596.719C424.641 596.719 414.93 589.93 415.273 585.289C415.617 580.648 415.273 520.406 413.125 519.375C401.71 517.957 390.164 517.957 378.75 519.375C364.398 520.75 354 524.703 353.656 527.969C353.312 531.234 355.805 590.617 353.656 594.57C351.508 598.524 299.945 602.734 266.258 603.164C232.57 603.594 226.898 603.164 226.898 599.555C226.898 595.945 221.141 556.586 232.312 550.484C245.358 545.922 258.93 543.034 272.703 541.891C272.703 541.891 248.039 474.602 235.836 440.914C223.633 407.227 215.469 381.445 215.469 381.445L187.539 389.781C187.539 389.781 190.031 403.703 183.242 408.773C176.453 413.844 163.906 417.367 157.461 408.773C155.678 406.181 154.492 403.226 153.987 400.12C153.481 397.015 153.67 393.836 154.539 390.813C150.982 388.669 148.053 385.626 146.046 381.99C144.04 378.354 143.027 374.254 143.109 370.102C144.914 357.555 149.898 352.914 152.82 351.453C155.257 350.809 157.784 350.576 160.297 350.766C160.297 350.766 167.773 336.758 178.344 339.594C181.182 340.09 183.791 341.471 185.798 343.539C187.804 345.607 189.106 348.257 189.516 351.109L208.851 343.891C204.137 324.155 203.756 303.632 207.734 283.734C210.42 267.287 217.186 251.775 227.414 238.617L189.516 198.914C184.423 202.527 178.661 205.087 172.566 206.445C166.472 207.803 160.168 207.93 154.023 206.82C135.375 202.094 118.187 183.531 133.055 155.258C147.922 126.984 195.531 124.406 207.219 140.562C218.906 156.719 207.219 177.773 207.219 177.773L243.57 209.313Z" fill="#1D1D1B"/>
<path d="M172.5 358.586L167.774 351.109C167.774 351.109 169.578 342.516 176.797 345.695C184.016 348.875 185.391 359.359 186.422 358.93C187.453 358.5 207.906 350.766 209.024 352.914C210.141 355.062 213.664 373.625 213.664 373.625C213.664 373.625 179.289 382.219 179.289 384.367C179.289 386.516 182.125 398.375 177.485 402.328C172.844 406.281 166.055 406.625 164.594 403.703C163.133 400.781 162.102 393.734 164.594 393.305C167.086 392.875 169.578 391.586 169.578 390.469C169.578 389.352 168.891 384.367 168.891 384.367C168.891 384.367 160.297 387.289 156 382.562C151.703 377.836 148.094 364.687 152.563 361.508C154.441 360.076 156.704 359.237 159.062 359.099C161.42 358.961 163.765 359.531 165.797 360.734C167.43 362.883 172.5 358.586 172.5 358.586Z" fill="#DDC07C"/>
<path d="M205.414 358.93C206.102 360.047 207.906 365.031 206.102 366.148C203.914 366.877 201.618 367.226 199.313 367.18C199.313 367.18 196.133 362.539 197.508 361.508C200.038 360.354 202.69 359.49 205.414 358.93Z" fill="#1D1D1B"/>
<path d="M173.875 140.562C188.742 137.812 201.461 144.086 203.609 157.75C205.758 171.414 187.883 192.125 175.68 197.109C163.477 202.094 147.063 201.062 140.274 190.664C133.484 180.266 131.25 148.383 173.875 140.562Z" fill="#FAB900"/>
<path d="M204.125 185.336C216.372 195.329 227.862 206.216 238.5 217.906C236.918 221.903 234.746 225.64 232.055 228.992C232.055 228.992 195.531 197.453 196.82 195.648C198.11 193.844 204.125 185.336 204.125 185.336Z" fill="#DDC07C"/>
<path d="M555.61 138.414C567.727 134.461 588.524 136.609 593.164 164.883C597.805 193.156 580.274 203.898 562.742 200.375C555.157 199.006 548.38 194.792 543.796 188.595C539.213 182.398 537.167 174.685 538.078 167.031C538.766 151.305 545.555 141.594 555.61 138.414Z" fill="#FAB900"/>
<path d="M535.156 193.5C536.273 194.961 545.555 202.094 544.523 203.555C543.492 205.016 524.844 229.336 524.844 229.336C521.593 223.187 518.723 216.844 516.25 210.344C516.594 209.313 535.156 193.5 535.156 193.5Z" fill="#DDC07C"/>
<path d="M318.164 172.445C339.133 162.82 392.672 155.945 429.883 161.703C467.094 167.461 504.906 212.148 513.5 243.688C518.998 265.075 522.848 286.852 525.016 308.828C525.016 308.828 493.82 290.266 492.359 291.641C490.898 293.016 490.641 298.086 491.672 298.859C492.703 299.633 524.242 313.125 525.016 316.047C525.789 318.969 525.016 338.219 525.016 338.219C514.892 333.085 504.476 328.552 493.82 324.641C493.133 325.672 489.867 329.969 493.82 331.086C504.216 335.934 514.165 341.685 523.555 348.273C523.555 349.648 520.719 371.477 520.719 371.477C520.719 371.477 497.086 358.242 495.969 358.586C494.852 358.93 493.477 363.656 494.938 364C496.398 364.344 519.602 378.352 519.258 380.5C518.914 382.648 487.719 482.164 486.516 482.508C480.157 480.221 473.931 477.582 467.867 474.602C467.867 474.602 465.031 479.672 466.406 480.359C467.781 481.047 484.711 487.836 483.594 489.641C482.477 491.445 480.328 498.234 480.328 498.234C473.974 494.491 467.267 491.383 460.305 488.953C459.188 489.984 457.383 492.562 459.188 493.937C465.997 496.698 472.653 499.825 479.125 503.305C479.125 504.68 479.125 510.438 478.094 510.438C471.064 507.019 463.832 504.034 456.438 501.5C454.633 502.188 452.484 505.797 454.633 507.172C456.781 508.547 475.773 516.539 475.43 518.688C474.566 521.272 473.473 523.774 472.164 526.164C465.937 522.101 459.481 518.4 452.828 515.078C451.797 515.078 450.336 520.406 451.367 521.18C457.411 524.363 463.162 528.073 468.555 532.266C468.555 533.297 445.695 534.758 445.352 537.594C444.707 540.19 444.707 542.904 445.352 545.5C446.039 546.961 471.133 545.5 486.859 547.648C502.586 549.797 509.461 549.453 510.148 553.406C510.836 557.359 512.641 581.68 510.148 582.367C507.656 583.055 461.078 582.367 449.305 581.68C437.531 580.992 431 578.844 431 576.695C431 574.547 430.313 510.094 428.508 507.945C426.703 505.797 400.578 502.531 379.438 503.648C366.277 504.394 353.328 507.297 341.109 512.242C337.715 508.882 334.002 505.86 330.023 503.219C328.563 503.219 325.039 505.797 326.07 507.516C327.102 509.234 336.813 517.227 336.813 518.258C336.674 519.703 336.445 521.138 336.125 522.555C328.013 516.462 319.387 511.085 310.344 506.484C308.883 507.516 307.164 511.813 308.883 512.93C318.285 518.998 327.271 525.687 335.781 532.953C335.781 534.758 336.469 543.352 336.469 543.352C336.469 543.352 313.953 528.312 312.492 530.461C311.031 532.609 310.688 537.25 311.805 538.023C312.922 538.797 335.781 548.766 336.125 551.258C337.024 561.981 337.024 572.761 336.125 583.484C334.75 585.289 244.859 592.078 243.742 588.469C242.625 584.859 242.711 558.391 245.203 556.586C247.695 554.781 300.719 547.992 301.406 546.188C302.094 544.383 302.094 539.742 300.375 539.398C298.656 539.055 288.516 539.398 288.172 538.711C287.828 538.023 240.563 417.281 230.164 373.625C219.766 329.969 215.813 271.961 247.094 230.797C278.375 189.633 292.383 184.219 318.164 172.445Z" fill="#8EC480"/>
<path d="M387.344 188.859C390.18 188.859 390.18 197.453 389.063 197.453C368.376 196.378 347.899 202.047 330.711 213.609C301.75 233.633 298.485 240.852 296.336 240.078C294.188 239.305 290.321 237.93 291.008 236.125C302.274 221.347 316.795 209.364 333.442 201.107C350.09 192.85 368.417 188.541 387 188.516L387.344 188.859Z" fill="#1D1D1B"/>
<path d="M478.266 217.133C485.248 218.999 491.657 222.572 496.914 227.531C496.914 229.336 496.914 232.602 495.11 231.484C489.19 229.019 483.447 226.147 477.922 222.891C477.149 221.43 476.461 218.594 478.266 217.133Z" fill="#1D1D1B"/>
<path d="M484.024 241.195C484.024 241.195 508 250.82 509.805 255.805C511.61 260.789 512.641 261.906 510.493 261.562C501.004 257.906 491.882 253.36 483.25 247.984C482.907 246.18 482.907 241.883 484.024 241.195Z" fill="#1D1D1B"/>
<path d="M488.32 268.008C497.573 272.088 506.433 277.007 514.789 282.703C515.477 285.195 517.969 288.805 514.789 287.344C505.328 283.509 496.115 279.089 487.203 274.109C487.337 272.039 487.712 269.991 488.32 268.008Z" fill="#1D1D1B"/>
<path d="M540.914 351.797C542.375 352.484 571.68 365.031 572.797 365.375C573.914 365.719 589.984 357.898 598.578 360.391C607.172 362.883 605.023 367.523 604.25 369.672C603.477 371.82 601.07 376.117 602.875 377.578C604.68 379.039 604.68 380.07 605.711 380.07C606.742 380.07 610.352 374.742 613.273 376.547C615.04 378.241 616.122 380.527 616.312 382.967C616.502 385.408 615.788 387.834 614.305 389.781C610.476 394.074 605.869 397.602 600.727 400.18C599.266 400.18 598.578 404.477 600.039 405.508C601.5 406.539 609.32 409.117 607.516 412.297C606.561 414.09 605.217 415.647 603.581 416.851C601.945 418.056 600.06 418.878 598.065 419.258C596.069 419.637 594.013 419.564 592.05 419.043C590.086 418.523 588.264 417.568 586.719 416.25C576.406 407.656 573.141 384.711 572.797 382.992C571.956 380.076 570.49 377.378 568.5 375.086C558.315 372.365 548.275 369.124 538.422 365.375C538.422 364 540.914 351.797 540.914 351.797Z" fill="#DDC07C"/>
<path d="M380.899 424.844C382.274 424.844 412.352 428.453 434.18 417.711C456.008 406.969 469.328 389.781 472.164 390.469C475 391.156 478.953 395.453 478.266 396.914C469.158 412.792 455.218 425.347 438.477 432.75C411.32 444.867 384.422 445.984 382.274 443.836C380.125 441.688 377.289 425.531 380.899 424.844Z" fill="#1D1D1B"/>
<path d="M364.742 245.062C396.625 238.016 442.774 246.867 460.734 284.852C478.695 322.836 473.969 373.625 432.461 397.258C390.953 420.891 335.352 420.203 309.57 395.453C283.789 370.703 265.227 267.32 364.742 245.062Z" fill="#1D1D1B"/>
<path d="M366.804 256.492C394.304 250.391 434.179 258.039 449.648 290.867C465.117 323.695 461.078 367.523 425.242 387.891C389.406 408.258 341.625 407.656 319.195 386.344C296.765 365.031 280.867 275.656 366.804 256.492Z" fill="#E6E4DA"/>
<path d="M371.36 303.844C377.105 302.687 383.072 303.522 388.279 306.212C393.486 308.901 397.621 313.285 400.003 318.639C402.385 323.993 402.872 330 401.383 335.668C399.894 341.336 396.519 346.328 391.813 349.82C379.266 356.953 362.508 356.781 354.688 349.305C351.587 345.523 349.526 340.998 348.71 336.176C347.894 331.354 348.351 326.402 350.035 321.811C351.718 317.219 354.571 313.147 358.311 309.996C362.051 306.845 366.549 304.724 371.36 303.844Z" fill="#1D1D1B"/>
<path d="M377.977 312.437C380.398 311.788 382.951 311.813 385.36 312.51C387.768 313.207 389.94 314.549 391.641 316.391C395.164 320.687 383.047 330.656 381.586 329.969C380.125 329.281 371.531 315.961 377.977 312.437Z" fill="#E6E4DA"/>
<defs>
<filter id="filter0_f_9_279" x="0" y="0" width="577.975" height="577.975" filterUnits="userSpaceOnUse" color-interpolation-filters="sRGB">
<feFlood flood-opacity="0" result="BackgroundImageFix"/>
<feBlend mode="normal" in="SourceGraphic" in2="BackgroundImageFix" result="shape"/>
<feGaussianBlur stdDeviation="50.5" result="effect1_foregroundBlur_9_279"/>
</filter>
<filter id="filter1_f_9_279" x="188" y="161" width="577.975" height="577.975" filterUnits="userSpaceOnUse" color-interpolation-filters="sRGB">
<feFlood flood-opacity="0" result="BackgroundImageFix"/>
<feBlend mode="normal" in="SourceGraphic" in2="BackgroundImageFix" result="shape"/>
<feGaussianBlur stdDeviation="50.5" result="effect1_foregroundBlur_9_279"/>
</filter>
<radialGradient id="paint0_radial_9_279" cx="0" cy="0" r="1" gradientUnits="userSpaceOnUse" gradientTransform="translate(288.987 288.987) rotate(90) scale(187.988)">
<stop stop-color="#8EC480"/>
<stop offset="1" stop-color="#8EC480" stop-opacity="0"/>
</radialGradient>
<radialGradient id="paint1_radial_9_279" cx="0" cy="0" r="1" gradientUnits="userSpaceOnUse" gradientTransform="translate(476.988 449.988) rotate(90) scale(187.988)">
<stop stop-color="#FAB900"/>
<stop offset="1" stop-color="#FAB900" stop-opacity="0"/>
</radialGradient>
</defs>
</svg>
