<svg width="963" height="798" viewBox="0 0 963 798" fill="none" xmlns="http://www.w3.org/2000/svg">
<g filter="url(#filter0_f_3_392)">
<circle cx="379.5" cy="379.5" r="278.5" fill="url(#paint0_radial_3_392)" fill-opacity="0.6"/>
</g>
<g filter="url(#filter1_f_3_392)">
<circle cx="583.5" cy="475.5" r="278.5" fill="url(#paint1_radial_3_392)" fill-opacity="0.6"/>
</g>
<g clip-path="url(#clip0_3_392)">
<path d="M729.625 285.477C729.811 297.078 726.554 308.473 720.263 318.223C713.973 327.972 704.933 335.637 694.287 340.248C683.64 344.86 671.865 346.211 660.451 344.13C649.037 342.05 638.496 336.631 630.161 328.56C621.827 320.489 616.073 310.127 613.627 298.785C611.181 287.444 612.153 275.632 616.421 264.843C620.688 254.054 628.059 244.772 637.601 238.172C647.144 231.573 658.429 227.951 670.03 227.764C677.732 227.64 685.384 229.035 692.548 231.868C699.711 234.701 706.247 238.918 711.781 244.277C717.315 249.636 721.739 256.033 724.801 263.102C727.863 270.171 729.502 277.774 729.625 285.477Z" fill="#FCE4AB"/>
<path d="M404.397 258.684C404.628 272.963 400.619 286.989 392.878 298.99C385.137 310.991 374.011 320.426 360.907 326.104C347.803 331.781 333.31 333.445 319.26 330.885C305.211 328.325 292.235 321.657 281.976 311.723C271.716 301.789 264.633 289.036 261.622 275.076C258.61 261.116 259.806 246.577 265.058 233.297C270.31 220.017 279.382 208.592 291.127 200.468C302.872 192.344 316.762 187.885 331.041 187.655C350.188 187.348 368.672 194.658 382.429 207.978C396.186 221.298 404.088 239.537 404.397 258.684Z" fill="#FCE4AB"/>
<path d="M654.863 172.036C655.094 186.315 651.085 200.341 643.344 212.342C635.603 224.342 624.478 233.778 611.374 239.455C598.271 245.133 583.778 246.797 569.729 244.238C555.68 241.679 542.705 235.011 532.445 225.078C522.185 215.145 515.101 202.392 512.089 188.433C509.076 174.474 510.271 159.935 515.522 146.655C520.772 133.374 529.843 121.95 541.587 113.824C553.331 105.699 567.22 101.239 581.499 101.008C600.646 100.7 619.132 108.01 632.89 121.33C646.648 134.65 654.552 152.889 654.863 172.036Z" fill="#FCE4AB"/>
<path d="M572.608 193.677C572.9 211.705 567.839 229.415 558.066 244.566C548.292 259.718 534.246 271.631 517.701 278.8C501.157 285.968 482.858 288.069 465.12 284.838C447.382 281.606 431 273.187 418.046 260.645C405.093 248.103 396.15 232.001 392.347 214.376C388.545 196.751 390.055 178.395 396.685 161.628C403.316 144.861 414.77 130.437 429.598 120.18C444.427 109.922 461.964 104.293 479.992 104.003C504.164 103.615 527.501 112.844 544.87 129.661C562.238 146.477 572.216 169.504 572.608 193.677Z" fill="#FACD7B"/>
<path d="M711.286 229.349C711.548 245.502 707.014 261.37 698.257 274.946C689.5 288.522 676.914 299.196 662.091 305.619C647.267 312.042 630.872 313.925 614.978 311.03C599.085 308.135 584.406 300.592 572.8 289.354C561.193 278.117 553.18 263.69 549.773 247.898C546.366 232.106 547.718 215.659 553.659 200.635C559.599 185.612 569.862 172.688 583.148 163.497C596.434 154.306 612.147 149.262 628.3 149.001C649.959 148.652 670.87 156.921 686.433 171.989C701.996 187.057 710.935 207.69 711.286 229.349Z" fill="#F9B968"/>
<path d="M604.942 267.623C605.143 280.029 601.661 292.216 594.936 302.643C588.211 313.07 578.545 321.268 567.16 326.202C555.775 331.135 543.183 332.581 530.976 330.357C518.77 328.134 507.496 322.34 498.582 313.709C489.668 305.079 483.514 293.998 480.898 281.87C478.281 269.741 479.32 257.109 483.884 245.571C488.447 234.033 496.329 224.107 506.533 217.049C516.738 209.99 528.806 206.117 541.212 205.918C557.845 205.651 573.904 212.002 585.855 223.573C597.806 235.145 604.672 250.99 604.942 267.623Z" fill="#EA8542"/>
<path d="M321.197 304.697C321.344 313.887 318.764 322.914 313.781 330.637C308.798 338.36 301.638 344.432 293.204 348.086C284.771 351.74 275.443 352.811 266.401 351.164C257.359 349.517 249.008 345.226 242.404 338.833C235.801 332.44 231.241 324.233 229.302 315.249C227.362 306.265 228.131 296.907 231.509 288.36C234.887 279.812 240.724 272.458 248.281 267.228C255.839 261.997 264.778 259.125 273.967 258.975C286.292 258.78 298.19 263.487 307.046 272.06C315.902 280.634 320.992 292.372 321.197 304.697Z" fill="#EA8542"/>
<path d="M522.453 274.368C522.655 286.773 519.174 298.959 512.45 309.386C505.727 319.812 496.062 328.011 484.678 332.944C473.294 337.878 460.704 339.325 448.498 337.103C436.292 334.881 425.019 329.089 416.105 320.459C407.19 311.83 401.036 300.751 398.418 288.624C395.801 276.496 396.838 263.865 401.4 252.327C405.961 240.79 413.842 230.864 424.044 223.805C434.247 216.746 446.314 212.871 458.719 212.671C475.351 212.404 491.409 218.753 503.36 230.323C515.312 241.893 522.18 257.735 522.453 274.368Z" fill="#FCE4AB"/>
<path d="M437.325 285.222C437.513 296.824 434.256 308.221 427.967 317.971C421.678 327.722 412.638 335.389 401.991 340.002C391.345 344.615 379.57 345.968 368.154 343.889C356.739 341.81 346.196 336.392 337.86 328.322C329.524 320.251 323.768 309.889 321.32 298.547C318.873 287.205 319.843 275.392 324.11 264.602C328.376 253.812 335.746 244.529 345.288 237.927C354.83 231.325 366.116 227.702 377.717 227.514C385.42 227.388 393.073 228.781 400.238 231.613C407.403 234.446 413.94 238.662 419.475 244.021C425.01 249.38 429.436 255.776 432.498 262.846C435.561 269.915 437.201 277.519 437.325 285.222Z" fill="#F9B968"/>
<path d="M251.612 347.562L314.655 641.337L655.069 635.845L708.611 340.191L251.612 347.562Z" fill="#F39014"/>
<path d="M342.478 346.095L382.082 640.246L450.148 639.147L433.809 344.62L342.478 346.095Z" fill="#E5EFF3"/>
<path d="M251.612 347.562L314.655 641.337L382.102 640.246L342.498 346.095L251.612 347.562Z" fill="#ED4D55"/>
<path d="M708.611 340.191L616.407 341.674L586.304 636.94L655.073 635.833L708.611 340.191Z" fill="#ED4D55"/>
<path d="M433.809 344.62L450.18 639.147L518.246 638.048L525.116 343.145L433.809 344.62Z" fill="#ED4D55"/>
<path d="M525.096 343.145L518.226 638.048L586.296 636.952L616.387 341.678L525.096 343.145Z" fill="#E5EFF3"/>
<path opacity="0.4" d="M279.165 475.943C361.068 435.579 503.9 384.882 699.979 387.845L708.599 340.207L251.612 347.578L279.165 475.943Z" fill="#C52C58"/>
<path d="M732.797 336.069C732.917 343.49 730.084 350.655 724.922 355.987C719.759 361.319 712.69 364.382 705.269 364.503L255.733 371.753C248.313 371.873 241.149 369.04 235.817 363.878C230.484 358.717 227.421 351.648 227.3 344.228L227.182 336.764C227.062 329.343 229.895 322.179 235.057 316.847C240.218 311.515 247.287 308.451 254.707 308.33L704.242 301.084C711.663 300.964 718.827 303.796 724.159 308.958C729.491 314.12 732.555 321.188 732.676 328.609L732.797 336.069Z" fill="#ED4D55"/>
<path opacity="0.4" d="M673.594 533.53C562.732 598.468 355.737 607.537 307.659 608.769L314.655 641.337L655.069 635.841L673.594 533.53Z" fill="#C52C58"/>
<path d="M672.382 639.3C672.636 654.75 663.544 667.435 652.087 667.613L318.659 672.996C307.206 673.178 297.71 660.804 297.463 645.35L297.342 637.886C297.087 622.436 306.184 609.755 317.641 609.573L651.064 604.207C662.525 604.021 672.014 616.395 672.264 631.852L672.382 639.3Z" fill="#ED4D55"/>
</g>
<defs>
<filter id="filter0_f_3_392" x="0" y="0" width="759" height="759" filterUnits="userSpaceOnUse" color-interpolation-filters="sRGB">
<feFlood flood-opacity="0" result="BackgroundImageFix"/>
<feBlend mode="normal" in="SourceGraphic" in2="BackgroundImageFix" result="shape"/>
<feGaussianBlur stdDeviation="50.5" result="effect1_foregroundBlur_3_392"/>
</filter>
<filter id="filter1_f_3_392" x="204" y="96" width="759" height="759" filterUnits="userSpaceOnUse" color-interpolation-filters="sRGB">
<feFlood flood-opacity="0" result="BackgroundImageFix"/>
<feBlend mode="normal" in="SourceGraphic" in2="BackgroundImageFix" result="shape"/>
<feGaussianBlur stdDeviation="50.5" result="effect1_foregroundBlur_3_392"/>
</filter>
<radialGradient id="paint0_radial_3_392" cx="0" cy="0" r="1" gradientUnits="userSpaceOnUse" gradientTransform="translate(379.5 379.5) rotate(90) scale(278.5)">
<stop stop-color="#ED4D55"/>
<stop offset="1" stop-color="#ED4D55" stop-opacity="0"/>
</radialGradient>
<radialGradient id="paint1_radial_3_392" cx="0" cy="0" r="1" gradientUnits="userSpaceOnUse" gradientTransform="translate(583.5 475.5) rotate(90) scale(278.5)">
<stop stop-color="#F9B968"/>
<stop offset="1" stop-color="#ED4D55" stop-opacity="0"/>
</radialGradient>
<clipPath id="clip0_3_392">
<rect width="572" height="572" fill="white" transform="translate(194 101)"/>
</clipPath>
</defs>
</svg>
